<svg xmlns="http://www.w3.org/2000/svg" xmlns:xlink="http://www.w3.org/1999/xlink" width="1045" height="530.12"><rect width="1045" height="530.12" rx="5" ry="5" class="a"/><circle cx="20" cy="20" r="10.5" fill="#ff5f58"/><circle cx="54" cy="20" r="10.5" fill="#ffbd2e"/><circle cx="88" cy="20" r="10.5" fill="#18c132"/><svg height="477.62" viewBox="0 0 102 47.762" width="1020" x="12.5" xmlns="http://www.w3.org/2000/svg" xmlns:xlink="http://www.w3.org/1999/xlink" y="40"><style>@keyframes p{0%{transform:translateX(0)}4.9%{transform:translateX(-102px)}6.2%{transform:translateX(-408px)}18.2%{transform:translateX(-510px)}22.5%{transform:translateX(-612px)}24.2%{transform:translateX(-714px)}25.8%{transform:translateX(-816px)}34.2%{transform:translateX(-918px)}38.2%{transform:translateX(-1224px)}42.7%{transform:translateX(-1326px)}44.8%{transform:translateX(-1428px)}49.2%{transform:translateX(-1530px)}50.5%{transform:translateX(-1632px)}52.2%{transform:translateX(-1734px)}53.6%{transform:translateX(-1836px)}55%{transform:translateX(-2040px)}64.3%{transform:translateX(-2448px)}72.8%{transform:translateX(-2550px)}73.8%{transform:translateX(-2754px)}75%{transform:translateX(-2958px)}83.6%{transform:translateX(-3060px)}85.1%{transform:translateX(-3162px)}93.2%{transform:translateX(-3264px)}94.4%{transform:translateX(-3468px)}94.5%{transform:translateX(-3774px)}96%{transform:translateX(-4080px)}to{transform:translateX(-4182px)}}.a{fill:#212121}.f{fill:#d0d0d0}.g{fill:#71bef2}.i{fill:#a8cc8c}.j{fill:#6c99bb}.k{fill:#7e8e50}.l{fill:#505050}.n{fill:#7dd6cf}</style><g font-size="1.67" font-family="Monaco,Consolas,Menlo,'Bitstream Vera Sans Mono','Powerline Symbols',monospace"><defs><symbol id="1">0<text y="1.67" class="f">kestrel</text><path class="g" d="M9.018 0h23v2.171h-23z"/><text x="9.018" y="1.67" class="h"> ~/reps/test_ang_size</text><path class="i" d="M32.064 0h1v2.171h-1z"/><text x="32.064" y="1.67" class="j"></text><path class="i" d="M33.066 0h10v2.171h-10z"/><text x="33.066" y="1.67" class="h"> master</text><text x="43.086" y="1.67" class="k"></text></symbol><symbol id="2">0<text y="1.67" class="f">kestrel</text><path class="g" d="M9.018 0h23v2.171h-23z"/><text x="9.018" y="1.67" class="h"> ~/reps/test_ang_size</text><path class="i" d="M32.064 0h1v2.171h-1z"/><text x="32.064" y="1.67" class="j"></text><path class="i" d="M33.066 0h10v2.171h-10z"/><text x="33.066" y="1.67" class="h"> master</text><text x="43.086" y="1.67" class="k"></text><text x="45.09" y="1.67" class="f">pub</text><text x="49.098" y="1.67" class="l">build</text><text x="55.11" y="1.67" class="l">--mode=release</text></symbol><symbol id="3">0<text y="1.67" class="f">kestrel</text><path class="g" d="M9.018 0h23v2.171h-23z"/><text x="9.018" y="1.67" class="h"> ~/reps/test_ang_size</text><path class="i" d="M32.064 0h1v2.171h-1z"/><text x="32.064" y="1.67" class="j"></text><path class="i" d="M33.066 0h10v2.171h-10z"/><text x="33.066" y="1.67" class="h"> master</text><text x="43.086" y="1.67" class="k"></text><text x="45.09" y="1.67" class="f">pub</text><text x="49.098" y="1.67" class="f">build</text><text x="55.11" y="1.67" class="f">--mode=release</text></symbol><symbol id="4"><text y="1.67" class="f">Loading</text><text x="8.016" y="1.67" class="f">source</text><text x="15.03" y="1.67" class="f">assets...</text></symbol><symbol id="5"><text y="1.67" class="f">Loading</text><text x="8.016" y="1.67" class="f">angular</text><text x="16.032" y="1.67" class="f">and</text><text x="20.04" y="1.67" class="f">dart_to_js_script_rewriter</text><text x="47.094" y="1.67" class="f">transformers...</text></symbol><symbol id="6"><text y="1.67" class="f">Building</text><text x="9.018" y="1.67" class="f">test_ang_s</text><text x="19.038" y="1.67" fill="#d0d0d0" font-weight="700">(28.2s)</text></symbol><symbol id="7"><text y="1.67" class="n">[Info</text><text x="6.012" y="1.67" class="n">from</text><text x="11.022" y="1.67" class="n">Dart2JS]:</text></symbol><symbol id="8"><text y="1.67" class="f">Compiling</text><text x="10.02" y="1.67" class="f">test_ang_size|web/main.dart...</text></symbol><symbol id="9"><text y="1.67" class="n">[Dart2JS</text><text x="9.018" y="1.67" class="n">on</text><text x="12.024" y="1.67" class="n">test_ang_size|web/main.dart]:</text></symbol><symbol id="10"><text y="1.67" class="f">View</text><text x="5.01" y="1.67" class="f">the</text><text x="9.018" y="1.67" class="f">dumped</text><text x="16.032" y="1.67" class="f">.info.json</text><text x="27.054" y="1.67" class="f">file</text><text x="32.064" y="1.67" class="f">at</text><text x="35.07" y="1.67" class="f">https://dart-lang.github.io/dump-info-visualizer</text></symbol><symbol id="11"><text y="1.67" class="f">Took</text><text x="5.01" y="1.67" class="f">0:00:08.692153</text><text x="20.04" y="1.67" class="f">to</text><text x="23.046" y="1.67" class="f">compile</text><text x="31.062" y="1.67" class="f">test_ang_size|web/main.dart.</text></symbol><symbol id="12"><text y="1.67" class="f">Built</text><text x="6.012" y="1.67" class="f">447</text><text x="10.02" y="1.67" class="f">files</text><text x="16.032" y="1.67" class="f">to</text><text x="19.038" y="1.67" class="f">&quot;build&quot;.</text></symbol><symbol id="13">0<text y="1.67" class="f">kestrel</text><path class="g" d="M9.018 0h23v2.171h-23z"/><text x="9.018" y="1.67" class="h"> ~/reps/test_ang_size</text><path class="i" d="M32.064 0h1v2.171h-1z"/><text x="32.064" y="1.67" class="j"></text><path class="i" d="M33.066 0h10v2.171h-10z"/><text x="33.066" y="1.67" class="h"> master</text><text x="43.086" y="1.67" class="k"></text><text x="45.09" y="1.67" class="f">du</text><text x="48.096" y="1.67" class="f">-h</text><text x="51.102" y="1.67" class="f">build/web/main.dart.js</text></symbol><symbol id="14"><text y="1.67" class="f">192K</text><text x="8.016" y="1.67" class="f">build/web/main.dart.js</text></symbol><symbol id="a"><path fill="transparent" d="M0 0h102v22H0z"/></symbol><symbol id="b"><path class="f" d="M0 0h1.102v2.171H0z"/></symbol></defs><path class="a" d="M0 0h102v47.762H0z"/><g style="animation-duration:7.397781s;animation-iteration-count:infinite;animation-name:p;animation-timing-function:steps(1,end)"><svg width="4284"><svg><use xlink:href="#a"/><use xlink:href="#b" x="-.004"/></svg><svg x="102"><use xlink:href="#a"/><use xlink:href="#b" x="-.004"/></svg><svg x="204"><use xlink:href="#a"/><use xlink:href="#b" x="44.996"/><use xlink:href="#1"/></svg><svg x="306"><use xlink:href="#a"/><use xlink:href="#b" x="44.996"/><use xlink:href="#1"/></svg><svg x="408"><use xlink:href="#a"/><use xlink:href="#b" x="44.996"/><use xlink:href="#1"/></svg><svg x="510"><use xlink:href="#a"/><use xlink:href="#b" x="45.996"/>0<text y="1.67" class="f">kestrel</text><path class="g" d="M9.018 0h23v2.171h-23z"/><text x="9.018" y="1.67" class="h"> ~/reps/test_ang_size</text><path class="i" d="M32.064 0h1v2.171h-1z"/><text x="32.064" y="1.67" class="j"></text><path class="i" d="M33.066 0h10v2.171h-10z"/><text x="33.066" y="1.67" class="h"> master</text><text x="43.086" y="1.67" class="k"></text><text x="45.09" y="1.67" class="f">p</text><text x="46.092" y="1.67" class="l">ub</text><text x="49.098" y="1.67" class="l">build</text><text x="55.11" y="1.67" class="l">--mode=release</text></svg><svg x="612"><use xlink:href="#a"/><use xlink:href="#b" x="46.996"/>0<text y="1.67" class="f">kestrel</text><path class="g" d="M9.018 0h23v2.171h-23z"/><text x="9.018" y="1.67" class="h"> ~/reps/test_ang_size</text><path class="i" d="M32.064 0h1v2.171h-1z"/><text x="32.064" y="1.67" class="j"></text><path class="i" d="M33.066 0h10v2.171h-10z"/><text x="33.066" y="1.67" class="h"> master</text><text x="43.086" y="1.67" class="k"></text><text x="45.09" y="1.67" class="f">pu</text><text x="47.094" y="1.67" class="l">b</text><text x="49.098" y="1.67" class="l">build</text><text x="55.11" y="1.67" class="l">--mode=release</text></svg><svg x="714"><use xlink:href="#a"/><use xlink:href="#b" x="47.996"/><use xlink:href="#2"/></svg><svg x="816"><use xlink:href="#a"/><use xlink:href="#b" x="48.996"/><use xlink:href="#2"/></svg><svg x="918"><use xlink:href="#a"/><use xlink:href="#b" x="68.996"/><use xlink:href="#3"/></svg><svg x="1020"><use xlink:href="#a"/><use xlink:href="#b" x="68.996"/><use xlink:href="#3"/></svg><svg x="1122"><use xlink:href="#a"/><use xlink:href="#b" x="-.004" y="2.146"/><use xlink:href="#3"/></svg><svg x="1224"><use xlink:href="#a"/><use xlink:href="#b" x="-.004" y="2.146"/><use xlink:href="#3"/></svg><svg x="1326"><use xlink:href="#a"/><use xlink:href="#b" x="24.996" y="2.146"/><use xlink:href="#3"/><use xlink:href="#4" y="2.171"/></svg><svg x="1428"><use xlink:href="#a"/><use xlink:href="#b" x="-.004" y="4.317"/><use xlink:href="#3"/><use xlink:href="#4" y="2.171"/></svg><svg x="1530"><use xlink:href="#a"/><use xlink:href="#b" x="62.996" y="4.317"/><use xlink:href="#3"/><use xlink:href="#4" y="2.171"/><use xlink:href="#5" y="4.342"/></svg><svg x="1632"><use xlink:href="#a"/><use xlink:href="#b" x="-.004" y="6.488"/><use xlink:href="#3"/><use xlink:href="#4" y="2.171"/><use xlink:href="#5" y="4.342"/></svg><svg x="1734"><use xlink:href="#a"/><use xlink:href="#b" x="25.996" y="6.488"/><use xlink:href="#3"/><use xlink:href="#4" y="2.171"/><use xlink:href="#5" y="4.342"/><text y="8.183" class="f">Building</text><text x="9.018" y="8.183" class="f">test_ang_size...</text></svg><svg x="1836"><use xlink:href="#a"/><use xlink:href="#b" x="25.996" y="6.488"/><use xlink:href="#3"/><use xlink:href="#4" y="2.171"/><use xlink:href="#5" y="4.342"/><use xlink:href="#6" y="6.513"/></svg><svg x="1938"><use xlink:href="#a"/><use xlink:href="#b" x="-.004" y="10.83"/><use xlink:href="#3"/><use xlink:href="#4" y="2.171"/><use xlink:href="#5" y="4.342"/><use xlink:href="#6" y="6.513"/><use xlink:href="#7" y="8.684"/></svg><svg x="2040"><use xlink:href="#a"/><use xlink:href="#b" x="-.004" y="13.001"/><use xlink:href="#3"/><use xlink:href="#4" y="2.171"/><use xlink:href="#5" y="4.342"/><use xlink:href="#6" y="6.513"/><use xlink:href="#7" y="8.684"/><use xlink:href="#8" y="10.855"/></svg><svg x="2142"><use xlink:href="#a"/><use xlink:href="#b" x="40.996" y="13.001"/><use xlink:href="#3"/><use xlink:href="#4" y="2.171"/><use xlink:href="#5" y="4.342"/><use xlink:href="#6" y="6.513"/><use xlink:href="#7" y="8.684"/><use xlink:href="#8" y="10.855"/><use xlink:href="#9" y="13.026"/></svg><svg x="2244"><use xlink:href="#a"/><use xlink:href="#b" x="-.004" y="15.172"/><use xlink:href="#3"/><use xlink:href="#4" y="2.171"/><use xlink:href="#5" y="4.342"/><use xlink:href="#6" y="6.513"/><use xlink:href="#7" y="8.684"/><use xlink:href="#8" y="10.855"/><use xlink:href="#9" y="13.026"/></svg><svg x="2346"><use xlink:href="#a"/><use xlink:href="#b" x="-.004" y="17.343"/><use xlink:href="#3"/><use xlink:href="#4" y="2.171"/><use xlink:href="#5" y="4.342"/><use xlink:href="#6" y="6.513"/><use xlink:href="#7" y="8.684"/><use xlink:href="#8" y="10.855"/><use xlink:href="#9" y="13.026"/><use xlink:href="#10" y="15.197"/></svg><svg x="2448"><use xlink:href="#a"/><use xlink:href="#b" x="-.004" y="21.685"/><use xlink:href="#3"/><use xlink:href="#4" y="2.171"/><use xlink:href="#5" y="4.342"/><use xlink:href="#6" y="6.513"/><use xlink:href="#7" y="8.684"/><use xlink:href="#8" y="10.855"/><use xlink:href="#9" y="13.026"/><use xlink:href="#10" y="15.197"/><use xlink:href="#7" y="17.368"/><use xlink:href="#11" y="19.539"/></svg><svg x="2550"><use xlink:href="#a"/><use xlink:href="#b" x="-.004" y="23.856"/><use xlink:href="#3"/><use xlink:href="#4" y="2.171"/><use xlink:href="#5" y="4.342"/><use xlink:href="#6" y="6.513"/><use xlink:href="#7" y="8.684"/><use xlink:href="#8" y="10.855"/><use xlink:href="#9" y="13.026"/><use xlink:href="#10" y="15.197"/><use xlink:href="#7" y="17.368"/><use xlink:href="#11" y="19.539"/><use xlink:href="#12" y="21.71"/></svg><svg x="2652"><use xlink:href="#a"/><use xlink:href="#b" x="-.004" y="23.856"/><use xlink:href="#3"/><use xlink:href="#4" y="2.171"/><use xlink:href="#5" y="4.342"/><use xlink:href="#6" y="6.513"/><use xlink:href="#7" y="8.684"/><use xlink:href="#8" y="10.855"/><use xlink:href="#9" y="13.026"/><use xlink:href="#10" y="15.197"/><use xlink:href="#7" y="17.368"/><use xlink:href="#11" y="19.539"/><use xlink:href="#12" y="21.71"/></svg><svg x="2754"><use xlink:href="#a"/><use xlink:href="#b" x="-.004" y="23.856"/><use xlink:href="#3"/><use xlink:href="#4" y="2.171"/><use xlink:href="#5" y="4.342"/><use xlink:href="#6" y="6.513"/><use xlink:href="#7" y="8.684"/><use xlink:href="#8" y="10.855"/><use xlink:href="#9" y="13.026"/><use xlink:href="#10" y="15.197"/><use xlink:href="#7" y="17.368"/><use xlink:href="#11" y="19.539"/><use xlink:href="#12" y="21.71"/></svg><svg x="2856"><use xlink:href="#a"/><use xlink:href="#b" x="44.996" y="23.856"/><use xlink:href="#3"/><use xlink:href="#4" y="2.171"/><use xlink:href="#5" y="4.342"/><use xlink:href="#6" y="6.513"/><use xlink:href="#7" y="8.684"/><use xlink:href="#8" y="10.855"/><use xlink:href="#9" y="13.026"/><use xlink:href="#10" y="15.197"/><use xlink:href="#7" y="17.368"/><use xlink:href="#11" y="19.539"/><use xlink:href="#12" y="21.71"/><use xlink:href="#1" y="23.881"/></svg><svg x="2958"><use xlink:href="#a"/><use xlink:href="#b" x="44.996" y="23.856"/><use xlink:href="#3"/><use xlink:href="#4" y="2.171"/><use xlink:href="#5" y="4.342"/><use xlink:href="#6" y="6.513"/><use xlink:href="#7" y="8.684"/><use xlink:href="#8" y="10.855"/><use xlink:href="#9" y="13.026"/><use xlink:href="#10" y="15.197"/><use xlink:href="#7" y="17.368"/><use xlink:href="#11" y="19.539"/><use xlink:href="#12" y="21.71"/><use xlink:href="#1" y="23.881"/></svg><svg x="3060"><use xlink:href="#a"/><use xlink:href="#b" x="45.996" y="23.856"/><use xlink:href="#3"/><use xlink:href="#4" y="2.171"/><use xlink:href="#5" y="4.342"/><use xlink:href="#6" y="6.513"/><use xlink:href="#7" y="8.684"/><use xlink:href="#8" y="10.855"/><use xlink:href="#9" y="13.026"/><use xlink:href="#10" y="15.197"/><use xlink:href="#7" y="17.368"/><use xlink:href="#11" y="19.539"/><use xlink:href="#12" y="21.71"/>0<text y="25.551" class="f">kestrel</text><path class="g" d="M9.018 23.881h23v2.171h-23z"/><text x="9.018" y="25.551" class="h"> ~/reps/test_ang_size</text><path class="i" d="M32.064 23.881h1v2.171h-1z"/><text x="32.064" y="25.551" class="j"></text><path class="i" d="M33.066 23.881h10v2.171h-10z"/><text x="33.066" y="25.551" class="h"> master</text><text x="43.086" y="25.551" class="k"></text><text x="45.09" y="25.551" class="f">d</text><text x="46.092" y="25.551" class="l">u</text><text x="48.096" y="25.551" class="l">-h</text><text x="51.102" y="25.551" class="l">build/web/main.dart.js</text></svg><svg x="3162"><use xlink:href="#a"/><use xlink:href="#b" x="46.996" y="23.856"/><use xlink:href="#3"/><use xlink:href="#4" y="2.171"/><use xlink:href="#5" y="4.342"/><use xlink:href="#6" y="6.513"/><use xlink:href="#7" y="8.684"/><use xlink:href="#8" y="10.855"/><use xlink:href="#9" y="13.026"/><use xlink:href="#10" y="15.197"/><use xlink:href="#7" y="17.368"/><use xlink:href="#11" y="19.539"/><use xlink:href="#12" y="21.71"/>0<text y="25.551" class="f">kestrel</text><path class="g" d="M9.018 23.881h23v2.171h-23z"/><text x="9.018" y="25.551" class="h"> ~/reps/test_ang_size</text><path class="i" d="M32.064 23.881h1v2.171h-1z"/><text x="32.064" y="25.551" class="j"></text><path class="i" d="M33.066 23.881h10v2.171h-10z"/><text x="33.066" y="25.551" class="h"> master</text><text x="43.086" y="25.551" class="k"></text><text x="45.09" y="25.551" class="f">du</text><text x="48.096" y="25.551" class="l">-h</text><text x="51.102" y="25.551" class="l">build/web/main.dart.js</text></svg><svg x="3264"><use xlink:href="#a"/><use xlink:href="#b" x="72.996" y="23.856"/><use xlink:href="#3"/><use xlink:href="#4" y="2.171"/><use xlink:href="#5" y="4.342"/><use xlink:href="#6" y="6.513"/><use xlink:href="#7" y="8.684"/><use xlink:href="#8" y="10.855"/><use xlink:href="#9" y="13.026"/><use xlink:href="#10" y="15.197"/><use xlink:href="#7" y="17.368"/><use xlink:href="#11" y="19.539"/><use xlink:href="#12" y="21.71"/><use xlink:href="#13" y="23.881"/></svg><svg x="3366"><use xlink:href="#a"/><use xlink:href="#b" x="-.004" y="26.027"/><use xlink:href="#3"/><use xlink:href="#4" y="2.171"/><use xlink:href="#5" y="4.342"/><use xlink:href="#6" y="6.513"/><use xlink:href="#7" y="8.684"/><use xlink:href="#8" y="10.855"/><use xlink:href="#9" y="13.026"/><use xlink:href="#10" y="15.197"/><use xlink:href="#7" y="17.368"/><use xlink:href="#11" y="19.539"/><use xlink:href="#12" y="21.71"/><use xlink:href="#13" y="23.881"/></svg><svg x="3468"><use xlink:href="#a"/><use xlink:href="#b" x="-.004" y="26.027"/><use xlink:href="#3"/><use xlink:href="#4" y="2.171"/><use xlink:href="#5" y="4.342"/><use xlink:href="#6" y="6.513"/><use xlink:href="#7" y="8.684"/><use xlink:href="#8" y="10.855"/><use xlink:href="#9" y="13.026"/><use xlink:href="#10" y="15.197"/><use xlink:href="#7" y="17.368"/><use xlink:href="#11" y="19.539"/><use xlink:href="#12" y="21.71"/><use xlink:href="#13" y="23.881"/></svg><svg x="3570"><use xlink:href="#a"/><use xlink:href="#b" x="-.004" y="28.198"/><use xlink:href="#3"/><use xlink:href="#4" y="2.171"/><use xlink:href="#5" y="4.342"/><use xlink:href="#6" y="6.513"/><use xlink:href="#7" y="8.684"/><use xlink:href="#8" y="10.855"/><use xlink:href="#9" y="13.026"/><use xlink:href="#10" y="15.197"/><use xlink:href="#7" y="17.368"/><use xlink:href="#11" y="19.539"/><use xlink:href="#12" y="21.71"/><use xlink:href="#13" y="23.881"/><use xlink:href="#14" y="26.052"/></svg><svg x="3672"><use xlink:href="#a"/><use xlink:href="#b" x="-.004" y="28.198"/><use xlink:href="#3"/><use xlink:href="#4" y="2.171"/><use xlink:href="#5" y="4.342"/><use xlink:href="#6" y="6.513"/><use xlink:href="#7" y="8.684"/><use xlink:href="#8" y="10.855"/><use xlink:href="#9" y="13.026"/><use xlink:href="#10" y="15.197"/><use xlink:href="#7" y="17.368"/><use xlink:href="#11" y="19.539"/><use xlink:href="#12" y="21.71"/><use xlink:href="#13" y="23.881"/><use xlink:href="#14" y="26.052"/></svg><svg x="3774"><use xlink:href="#a"/><use xlink:href="#b" x="-.004" y="28.198"/><use xlink:href="#3"/><use xlink:href="#4" y="2.171"/><use xlink:href="#5" y="4.342"/><use xlink:href="#6" y="6.513"/><use xlink:href="#7" y="8.684"/><use xlink:href="#8" y="10.855"/><use xlink:href="#9" y="13.026"/><use xlink:href="#10" y="15.197"/><use xlink:href="#7" y="17.368"/><use xlink:href="#11" y="19.539"/><use xlink:href="#12" y="21.71"/><use xlink:href="#13" y="23.881"/><use xlink:href="#14" y="26.052"/></svg><svg x="3876"><use xlink:href="#a"/><use xlink:href="#b" x="44.996" y="28.198"/><use xlink:href="#3"/><use xlink:href="#4" y="2.171"/><use xlink:href="#5" y="4.342"/><use xlink:href="#6" y="6.513"/><use xlink:href="#7" y="8.684"/><use xlink:href="#8" y="10.855"/><use xlink:href="#9" y="13.026"/><use xlink:href="#10" y="15.197"/><use xlink:href="#7" y="17.368"/><use xlink:href="#11" y="19.539"/><use xlink:href="#12" y="21.71"/><use xlink:href="#13" y="23.881"/><use xlink:href="#14" y="26.052"/><use xlink:href="#1" y="28.223"/></svg><svg x="3978"><use xlink:href="#a"/><use xlink:href="#b" x="44.996" y="28.198"/><use xlink:href="#3"/><use xlink:href="#4" y="2.171"/><use xlink:href="#5" y="4.342"/><use xlink:href="#6" y="6.513"/><use xlink:href="#7" y="8.684"/><use xlink:href="#8" y="10.855"/><use xlink:href="#9" y="13.026"/><use xlink:href="#10" y="15.197"/><use xlink:href="#7" y="17.368"/><use xlink:href="#11" y="19.539"/><use xlink:href="#12" y="21.71"/><use xlink:href="#13" y="23.881"/><use xlink:href="#14" y="26.052"/><use xlink:href="#1" y="28.223"/></svg><svg x="4080"><use xlink:href="#a"/><use xlink:href="#b" x="44.996" y="28.198"/><use xlink:href="#3"/><use xlink:href="#4" y="2.171"/><use xlink:href="#5" y="4.342"/><use xlink:href="#6" y="6.513"/><use xlink:href="#7" y="8.684"/><use xlink:href="#8" y="10.855"/><use xlink:href="#9" y="13.026"/><use xlink:href="#10" y="15.197"/><use xlink:href="#7" y="17.368"/><use xlink:href="#11" y="19.539"/><use xlink:href="#12" y="21.71"/><use xlink:href="#13" y="23.881"/><use xlink:href="#14" y="26.052"/><use xlink:href="#1" y="28.223"/></svg><svg x="4182"><use xlink:href="#a"/><use xlink:href="#b" x="-.004" y="30.369"/><use xlink:href="#3"/><use xlink:href="#4" y="2.171"/><use xlink:href="#5" y="4.342"/><use xlink:href="#6" y="6.513"/><use xlink:href="#7" y="8.684"/><use xlink:href="#8" y="10.855"/><use xlink:href="#9" y="13.026"/><use xlink:href="#10" y="15.197"/><use xlink:href="#7" y="17.368"/><use xlink:href="#11" y="19.539"/><use xlink:href="#12" y="21.71"/><use xlink:href="#13" y="23.881"/><use xlink:href="#14" y="26.052"/><use xlink:href="#1" y="28.223"/></svg></svg></g></g></svg></svg>