<svg id="Layer_1" data-name="Layer 1" xmlns="http://www.w3.org/2000/svg" viewBox="0 0 1024 335.08"><defs><style>.cls-1{fill:#fff;}</style></defs><title>Logo-white_1024px</title><path class="cls-1" d="M89.75,332.71,0,63.83H61.12l55,180.27,60.35-181h42.77L280,244.1,335,63.83h60L304.79,332.71H256.28L197.84,154.35,138.26,332.71Z"/><path class="cls-1" d="M398.42,332.71V142.13h53.84v42c16.64-49.22,72.57-41.91,72.57-41.91v52.7s-72.57-5.38-72.57,53.61v84.16Z"/><polygon class="cls-1" points="550.02 332.71 550.02 215.34 603.87 163.98 603.87 332.71 550.02 332.71"/><path class="cls-1" d="M649.05,332.71V122.26L702.89,68.5V211.64l65.7-69.51h66.07l-82.88,85.93,95.87,104.65H778.13L702.89,250.6v82.11Z"/><path class="cls-1" d="M866.42,307.94c-20-18.1-30.16-42.23-30.16-72q0-41.84,27.14-70.12c18.09-19.23,41.85-28.65,70.88-28.65,27.51,0,49,9.8,65.21,29s24.51,42.6,24.51,70.5v13.94H889c5.66,25.64,29.79,39.21,63,39.21,21.12,0,41.09-5.66,60.32-16.59v42.6c-17,12.82-40.72,19.23-71.63,19.23C911.28,335.08,886.4,326,866.42,307.94ZM971.59,216.7C970.47,196,955.76,179,932,179c-24.12,0-40.34,15.46-43,37.7Z"/><polygon class="cls-1" points="659.51 0 580.51 79 616.3 114.79 731.09 0 659.51 0"/><polygon class="cls-1" points="553.35 63.15 481.77 63.15 574.86 156.23 610.65 120.44 553.35 63.15"/></svg>